<svg width="69" height="61" viewBox="0 0 69 61" fill="none" xmlns="http://www.w3.org/2000/svg">
<path fill-rule="evenodd" clip-rule="evenodd" d="M30.0844 1.50323C31.4323 0.744367 32.953 0.345703 34.4998 0.345703C36.0466 0.345703 37.5673 0.744367 38.9152 1.50323C40.2631 2.26209 41.3926 3.35553 42.1948 4.67805L42.2034 4.69232L67.6134 47.1123C67.6217 47.1261 67.6298 47.1399 67.6378 47.1538C68.4236 48.5147 68.8394 50.0576 68.8438 51.6291C68.8482 53.2006 68.4411 54.7458 67.6629 56.1111C66.8847 57.4764 65.7625 58.6141 64.4081 59.4111C63.0537 60.208 61.5142 60.6365 59.9428 60.6538L59.9098 60.6539H9.08982L9.05685 60.6538C7.48543 60.6365 5.94594 60.208 4.59153 59.4111C3.23711 58.6141 2.11498 57.4764 1.33677 56.1111C0.558556 54.7458 0.151397 53.2006 0.155797 51.6291C0.160197 50.0576 0.576004 48.5147 1.36185 47.1538C1.36986 47.1399 1.37798 47.1261 1.38622 47.1123L26.7962 4.69232L29.3698 6.23394L26.8048 4.67805C27.607 3.35553 28.7366 2.26209 30.0844 1.50323ZM31.9384 7.78394C31.9372 7.78589 31.936 7.78786 31.9348 7.78982L6.5479 50.1714C6.29235 50.6208 6.15722 51.1287 6.15577 51.6459C6.15431 52.1697 6.29003 52.6848 6.54943 53.1399C6.80884 53.595 7.18288 53.9742 7.63435 54.2399C8.08194 54.5033 8.59016 54.6459 9.10925 54.6539H59.8904C60.4095 54.6459 60.9177 54.5033 61.3653 54.2399C61.8168 53.9742 62.1908 53.595 62.4502 53.1399C62.7096 52.6848 62.8453 52.1697 62.8439 51.6459C62.8424 51.1287 62.7073 50.6208 62.4518 50.1714L37.0648 7.78982C37.0636 7.78786 37.0624 7.78589 37.0612 7.78394C36.7941 7.34574 36.4189 6.98337 35.9716 6.73154C35.5223 6.47859 35.0154 6.3457 34.4998 6.3457C33.9842 6.3457 33.4773 6.47859 33.028 6.73154C32.5807 6.98337 32.2056 7.34574 31.9384 7.78394Z" fill="#EE6380"/>
<path fill-rule="evenodd" clip-rule="evenodd" d="M34.4998 18.6539C36.1567 18.6539 37.4998 19.9971 37.4998 21.6539V33.6539C37.4998 35.3108 36.1567 36.6539 34.4998 36.6539C32.843 36.6539 31.4998 35.3108 31.4998 33.6539V21.6539C31.4998 19.9971 32.843 18.6539 34.4998 18.6539Z" fill="#EE6380"/>
<path fill-rule="evenodd" clip-rule="evenodd" d="M31.4998 45.6539C31.4998 43.9971 32.843 42.6539 34.4998 42.6539H34.5298C36.1867 42.6539 37.5298 43.9971 37.5298 45.6539C37.5298 47.3108 36.1867 48.6539 34.5298 48.6539H34.4998C32.843 48.6539 31.4998 47.3108 31.4998 45.6539Z" fill="#EE6380"/>
</svg>
