<svg width="67" height="67" viewBox="0 0 67 67" fill="none" xmlns="http://www.w3.org/2000/svg">
<path fill-rule="evenodd" clip-rule="evenodd" d="M33.5 6.5C18.5883 6.5 6.5 18.5883 6.5 33.5C6.5 48.4117 18.5883 60.5 33.5 60.5C48.4117 60.5 60.5 48.4117 60.5 33.5C60.5 18.5883 48.4117 6.5 33.5 6.5ZM0.5 33.5C0.5 15.2746 15.2746 0.5 33.5 0.5C51.7254 0.5 66.5 15.2746 66.5 33.5C66.5 51.7254 51.7254 66.5 33.5 66.5C15.2746 66.5 0.5 51.7254 0.5 33.5ZM33.5 12.5C35.1569 12.5 36.5 13.8431 36.5 15.5V31.6459L46.8416 36.8167C48.3236 37.5577 48.9242 39.3597 48.1833 40.8416C47.4423 42.3236 45.6403 42.9242 44.1584 42.1833L32.1584 36.1833C31.142 35.6751 30.5 34.6363 30.5 33.5V15.5C30.5 13.8431 31.8431 12.5 33.5 12.5Z" fill="#F7C600"/>
</svg>
