<svg width="67" height="67" viewBox="0 0 67 67" fill="none" xmlns="http://www.w3.org/2000/svg">
<path fill-rule="evenodd" clip-rule="evenodd" d="M44.489 8.83746C39.1707 6.46777 33.2289 5.88071 27.5497 7.16385C21.8705 8.44699 16.7583 11.5316 12.9754 15.9576C9.19246 20.3835 6.94162 25.9138 6.55853 31.7235C6.17544 37.5332 7.68062 43.3112 10.8496 48.1955C14.0186 53.0799 18.6815 56.8091 24.1431 58.8268C29.6046 60.8446 35.5721 61.0428 41.1555 59.392C46.7389 57.7411 51.6391 54.3297 55.1252 49.6664C58.6114 45.0031 60.4967 39.3378 60.5 33.5155V30.7572C60.5 29.1003 61.8432 27.7572 63.5 27.7572C65.1569 27.7572 66.5 29.1003 66.5 30.7572V33.5189C66.496 40.6351 64.1917 47.5593 59.9308 53.2589C55.67 58.9585 49.6808 63.1281 42.8567 65.1458C36.0325 67.1635 28.739 66.9212 22.0638 64.455C15.3885 61.9889 9.68936 57.431 5.81617 51.4612C1.94298 45.4914 0.103311 38.4295 0.571533 31.3287C1.03976 24.228 3.79078 17.4688 8.41432 12.0592C13.0379 6.64969 19.2862 2.87965 26.2274 1.31137C33.1687 -0.25691 40.4309 0.4606 46.931 3.35689C48.4444 4.03123 49.1246 5.80476 48.4503 7.31817C47.776 8.83159 46.0024 9.5118 44.489 8.83746ZM65.6203 7.39479C66.7924 8.56578 66.7934 10.4653 65.6224 11.6374L35.6224 41.6674C35.0599 42.2305 34.2967 42.547 33.5008 42.5472C32.7049 42.5474 31.9415 42.2313 31.3787 41.6685L22.3787 32.6685C21.2071 31.4969 21.2071 29.5974 22.3787 28.4259C23.5503 27.2543 25.4498 27.2543 26.6213 28.4259L33.499 35.3035L61.3776 7.39691C62.5486 6.22476 64.4481 6.22381 65.6203 7.39479Z" fill="#00B9D1"/>
</svg>
