<svg width="152" height="32" viewBox="0 0 152 32" fill="none" xmlns="http://www.w3.org/2000/svg">
<path d="M22.7607 16.3441C21.7464 20.766 17.5476 24.2064 11.9525 24.1987C4.50522 24.189 -0.00774759 18.621 9.98501e-06 12.2152C0.00776756 6.03626 4.43928 0.318929 11.5937 0.328626C18.3583 0.338323 22.0606 4.27723 22.7685 9.18972L18.8335 9.1839C18.2846 6.06147 15.8158 3.68378 12.0766 3.6799C6.84025 3.67214 3.84389 7.7662 3.83807 12.221C3.83031 16.9046 6.91589 20.8435 12.4432 20.8513C15.0769 20.8552 17.9103 18.939 18.6609 16.3383L22.7607 16.3441Z" fill="white"/>
<path d="M26.9983 8.51287L30.5435 8.51674L30.5222 23.6712L26.977 23.6653L26.9983 8.51287ZM28.767 0.353836C30.2313 0.355775 31.4007 1.52717 31.3988 2.99141C31.3969 4.42268 30.2235 5.59214 28.7612 5.5902C27.3299 5.58826 26.1605 4.41493 26.1624 2.98559C26.1644 1.51941 27.3358 0.349957 28.767 0.353836Z" fill="white"/>
<path d="M44.3132 23.6906C43.7605 23.7875 42.719 23.8826 41.6795 23.8806C39.9554 23.8787 36.769 23.646 36.7767 18.5415L36.7864 11.484L34.2167 11.4801L34.2206 8.52063L36.7903 8.52451L36.7961 3.93784L40.3413 3.94172L40.3355 8.52839L43.8148 8.53226L43.8109 11.4918L40.3316 11.4879L40.3239 17.7308C40.32 20.3664 41.1326 20.6923 42.5309 20.6942C43.0836 20.6961 43.9622 20.6302 44.319 20.5662L44.3132 23.6906Z" fill="white"/>
<path d="M49.7668 30.1041C48.5333 29.0627 47.7537 27.4995 47.7246 25.4186L51.3008 25.4224C51.4618 27.6023 53.0211 28.6767 54.8751 28.6806C57.0531 28.6845 58.5833 27.9049 58.5872 25.0753L58.593 21.596C57.6466 23.2212 55.8895 24.0978 53.6456 24.094C51.4657 24.092 49.9394 23.3085 49.0958 22.0382C48.3491 20.8978 48.1222 19.6295 48.1261 17.5485L48.1377 8.54002L51.6829 8.54584L51.6732 16.3829C51.6693 18.9837 52.4141 20.9696 54.9508 20.9735C57.4216 20.9774 58.5949 18.9953 58.5988 16.3926L58.6085 8.55553L62.1537 8.55941L62.1304 25.0792C62.1265 27.323 61.4749 28.9483 60.2376 30.0537C58.9673 31.1572 57.1462 31.675 54.8053 31.6712C52.7903 31.6692 51.0352 31.1475 49.7668 30.1041Z" fill="white"/>
<path d="M89.0725 16.4353C88.0582 20.8552 83.8575 24.2976 78.2642 24.2898C70.817 24.2782 66.304 18.7121 66.3118 12.3063C66.3195 6.12741 70.751 0.41008 77.9054 0.419777C84.6701 0.429474 88.3724 4.36838 89.0802 9.28087L85.1452 9.27505C84.5964 6.15263 82.1275 3.77687 78.3884 3.77105C73.152 3.76329 70.1556 7.85735 70.1498 12.3121C70.144 16.9958 73.2276 20.9327 78.7549 20.9424C81.3886 20.9463 84.2201 19.0302 84.9726 16.4314L89.0725 16.4353Z" fill="white"/>
<path d="M104.617 16.1967C104.621 13.596 102.867 11.3812 100.137 11.3774C97.4701 11.3735 95.711 13.5824 95.7072 16.1851C95.7033 18.7858 97.4565 21.0006 100.123 21.0045C102.854 21.0064 104.613 18.7975 104.617 16.1967ZM92.1619 16.1793C92.1678 11.8874 95.327 8.21614 100.141 8.2239C105.018 8.22971 108.168 11.9087 108.162 16.2026C108.156 20.4944 104.997 24.1657 100.119 24.1599C95.3057 24.1521 92.1561 20.4712 92.1619 16.1793Z" fill="white"/>
<path d="M112.432 8.62923L115.978 8.63311L115.956 23.7875L112.411 23.7837L112.432 8.62923ZM114.199 0.468264C115.664 0.470204 116.833 1.6416 116.829 3.10584C116.827 4.53711 115.654 5.70657 114.192 5.70463C112.76 5.70269 111.591 4.52936 111.593 3.09808C111.597 1.63578 112.77 0.466325 114.199 0.468264Z" fill="white"/>
<path d="M121.375 8.64087L124.92 8.64475L124.918 10.7587C125.863 9.13542 127.62 8.25881 129.864 8.26269C132.044 8.26657 133.57 9.04814 134.414 10.3184C135.16 11.4569 135.387 12.7272 135.383 14.8081L135.372 23.8166L131.826 23.8108L131.838 15.9737C131.842 13.3711 131.095 11.3871 128.56 11.3851C126.09 11.3812 124.916 13.3633 124.912 15.964L124.901 23.8011L121.356 23.7972L121.375 8.64087Z" fill="white"/>
<path d="M151.54 19.6101C151.536 22.7655 148.802 24.2239 145.486 24.22C142.233 24.2142 139.311 22.2923 139.314 18.716L142.763 18.7199C142.761 20.7039 143.994 21.4195 145.685 21.4234C147.084 21.4254 148.158 20.9715 148.16 19.6702C148.162 18.2389 146.634 18.14 143.449 16.8988C141.337 16.0823 139.842 15.3007 139.844 12.667C139.848 9.80644 142.452 8.28014 145.542 8.28596C148.761 8.28984 151.329 10.4717 151.323 13.4312L147.875 13.4273C147.877 11.998 147.163 11.0845 145.439 11.0826C144.235 11.0806 143.259 11.6644 143.257 12.7388C143.255 14.0401 144.654 14.205 147.417 15.2814C149.529 16.094 151.544 16.8464 151.54 19.6101Z" fill="white"/>
</svg>
