<?xml version="1.0" standalone="no"?>
<!DOCTYPE svg PUBLIC "-//W3C//DTD SVG 20010904//EN"
 "http://www.w3.org/TR/2001/REC-SVG-20010904/DTD/svg10.dtd">
<svg version="1.0" xmlns="http://www.w3.org/2000/svg"
 width="700.000000pt" height="700.000000pt" viewBox="0 0 700.000000 700.000000"
 preserveAspectRatio="xMidYMid meet">
<metadata>
Created by potrace 1.14, written by Peter Selinger 2001-2017
</metadata>
<g transform="translate(0.000000,700.000000) scale(0.100000,-0.100000)"
fill="#000000" stroke="none">
<path d="M3220 6970 c-1409 -123 -2596 -1061 -3030 -2396 -117 -361 -165 -671
-164 -1079 0 -270 13 -420 55 -645 158 -832 615 -1576 1290 -2101 96 -76 292
-210 349 -239 24 -13 24 -12 10 6 -8 10 -38 46 -66 79 -285 335 -524 786 -650
1230 -4 11 22 -18 56 -65 301 -407 647 -705 1070 -920 190 -96 312 -145 490
-196 318 -92 554 -126 865 -127 283 0 472 23 735 88 1141 284 2017 1231 2214
2395 150 882 -100 1774 -687 2456 -153 178 -370 373 -548 494 -66 45 -67 46
-109 150 -80 197 -274 572 -327 632 -18 21 -278 108 -440 147 -132 32 -313 64
-458 81 -124 15 -527 21 -655 10z m-944 -3234 c112 -291 205 -530 207 -532 1
-1 93 237 204 529 l201 532 206 3 206 2 0 -770 0 -770 -175 0 -175 0 -2 472
-3 472 -164 -472 -164 -473 -135 3 -134 3 -167 462 -166 462 -3 -464 -2 -465
-175 0 -175 0 0 770 0 770 207 -2 206 -3 203 -529z m1684 -236 l0 -770 -180 0
-180 0 0 770 0 770 180 0 180 0 0 -770z m1048 743 c5 -16 129 -359 276 -764
146 -405 266 -739 266 -743 0 -3 -87 -6 -193 -6 l-193 0 -27 90 -27 90 -278 0
-278 0 -27 -90 -27 -90 -191 0 c-156 0 -190 2 -187 14 2 7 125 354 273 770
l270 756 167 0 166 0 10 -27z"/>
<path d="M4827 3810 c-18 -48 -177 -592 -177 -605 0 -13 25 -15 179 -15 99 0
182 3 184 8 3 5 -154 555 -175 612 -5 13 -6 13 -11 0z"/>
</g>
</svg>
